<?xml version="1.0" standalone="no"?>
<!DOCTYPE svg PUBLIC "-//W3C//DTD SVG 20010904//EN" "http://www.w3.org/TR/2001/REC-SVG-20010904/DTD/svg10.dtd">
<svg xmlns="http://www.w3.org/2000/svg" version="1.0" width="1024.000000pt" height="1024.000000pt" viewBox="0 0 1024.000000 1024.000000" preserveAspectRatio="xMidYMid meet">
<metadata>
Created by potrace 1.16, written by Peter Selinger 2001-2019
<meta name="Producer" content="Online-Convert"/></metadata>
<g transform="translate(0.000000,1024.000000) scale(0.100000,-0.100000)" fill="#000000" stroke="none">
<path d="M4733 9526 c-100 -33 -177 -97 -215 -181 -18 -40 -23 -68 -23 -135 0 -98 20 -152 79 -217 35 -39 36 -43 36 -117 l0 -76 -83 2 c-71 1 -89 -2 -119 -20 -69 -43 -68 -34 -68 -582 0 -534 -1 -524 56 -569 15 -12 44 -24 66 -27 l38 -7 0 -61 -1 -61 -42 -20 c-41 -19 -42 -22 -45 -72 -4 -72 17 -118 62 -134 36 -13 36 -13 36 -74 0 -60 0 -61 -34 -73 -48 -18 -59 -35 -58 -96 0 -70 22 -112 62 -121 33 -7 35 -16 24 -99 -6 -43 -9 -47 -45 -56 -56 -15 -72 -45 -63 -117 5 -44 13 -64 36 -86 27 -27 32 -29 83 -22 l55 6 0 -54 c0 -40 -5 -58 -18 -71 -11 -9 -32 -42 -48 -74 -25 -49 -29 -69 -29 -137 0 -134 59 -225 185 -284 46 -22 69 -26 145 -26 78 0 97 4 147 28 109 54 178 166 178 290 0 84 -14 126 -60 189 -32 42 -40 61 -40 95 l0 42 48 -6 48 -5 12 39 c21 70 17 83 -24 83 -46 0 -41 21 9 33 20 5 48 20 63 33 24 23 26 30 22 84 -5 71 -25 98 -80 106 l-38 7 0 67 0 68 34 6 c55 10 70 35 63 107 -6 68 -23 94 -69 104 -21 5 -28 11 -24 22 3 8 6 36 6 62 0 45 2 48 39 65 47 20 55 40 46 113 -7 61 -31 93 -70 93 -14 0 -25 4 -25 10 0 5 20 7 48 3 66 -7 116 17 142 68 19 36 20 62 20 526 0 544 1 533 -69 580 -28 19 -47 23 -112 23 l-79 0 0 73 c0 73 0 74 44 119 149 156 97 420 -102 514 -68 32 -184 41 -249 20z m174 -207 c42 -26 63 -66 63 -121 0 -54 -27 -100 -73 -121 -128 -61 -257 67 -193 191 36 69 134 94 203 51z m201 -711 c3 -32 0 -38 -20 -43 -13 -3 -121 -4 -240 -2 -120 2 -222 0 -228 -3 -6 -4 -11 -146 -12 -376 l-3 -369 -22 -3 c-12 -2 -31 2 -42 8 -21 11 -21 18 -21 414 0 221 3 406 7 409 4 4 135 6 292 5 l286 -3 3 -37z m-138 -1023 c0 -8 -2 -15 -4 -15 -3 0 -77 -16 -166 -35 -89 -19 -165 -35 -171 -35 -5 0 -9 23 -9 50 l0 50 175 0 c149 0 175 -2 175 -15z m8 -307 l-3 -63 -165 -37 c-91 -20 -170 -37 -176 -38 -8 0 -11 20 -8 62 2 33 5 62 6 63 5 2 322 73 336 74 10 1 12 -15 10 -61z m2 -363 c0 -59 -2 -65 -22 -70 -13 -3 -90 -21 -171 -40 -81 -19 -152 -35 -157 -35 -6 0 -10 31 -10 69 l0 68 158 35 c217 49 202 51 202 -27z m-83 -649 c27 -29 33 -44 33 -80 0 -109 -138 -165 -215 -88 -50 50 -56 111 -15 160 53 64 142 68 197 8z"/>
<path d="M6795 8789 c-240 -31 -495 -166 -647 -342 -333 -387 -470 -954 -374 -1547 55 -334 177 -592 375 -791 149 -149 337 -262 517 -310 112 -30 328 -37 447 -15 221 42 403 136 570 295 282 268 449 676 464 1135 9 262 -26 496 -103 698 -193 506 -571 830 -1024 878 -108 11 -128 11 -225 -1z m-442 -391 c-177 -181 -300 -460 -360 -823 -25 -150 -25 -496 0 -640 45 -262 156 -519 290 -672 72 -82 56 -78 -25 7 -221 233 -340 559 -355 970 -16 452 129 851 413 1138 51 50 96 92 100 92 5 0 -24 -33 -63 -72z m892 -132 c376 -127 612 -544 592 -1046 -19 -485 -265 -859 -625 -951 -283 -72 -585 73 -762 366 -61 102 -93 179 -124 299 -148 568 101 1189 533 1330 102 34 112 35 216 32 65 -3 112 -11 170 -30z"/>
<path d="M6965 8163 c-139 -32 -238 -85 -333 -176 -204 -197 -303 -522 -262 -857 46 -372 234 -641 516 -736 93 -31 232 -33 322 -5 238 74 420 288 499 589 35 132 44 378 18 503 -43 216 -116 360 -250 494 -70 71 -106 99 -165 127 -109 53 -263 80 -345 61z m159 -202 c34 -17 72 -41 85 -55 l24 -25 -27 -55 c-15 -30 -44 -70 -66 -90 -67 -60 -121 -46 -178 45 -25 42 -65 186 -57 208 10 25 147 8 219 -28z m-394 -307 c21 -102 -16 -201 -86 -230 -35 -15 -140 -19 -147 -6 -3 4 -1 35 4 70 11 78 58 200 101 264 l33 49 41 -44 c33 -34 44 -56 54 -103z m781 -191 c20 -64 24 -99 24 -198 0 -66 -6 -143 -14 -172 l-13 -52 -38 25 c-52 35 -90 92 -106 161 -18 75 -17 108 1 170 15 51 85 143 109 143 7 0 24 -34 37 -77z m-427 -87 c57 -24 81 -101 52 -171 -17 -39 -42 -55 -88 -55 -102 1 -135 162 -46 224 28 20 40 20 82 2z m-372 -347 c31 -16 58 -86 58 -151 0 -58 -28 -208 -39 -208 -4 0 -29 20 -58 45 -62 54 -118 137 -145 212 -17 48 -17 58 -5 70 35 35 147 54 189 32z m518 -214 c16 -15 38 -50 50 -77 l21 -50 -26 -33 c-48 -64 -138 -114 -229 -128 l-39 -6 6 82 c7 94 37 185 76 223 22 22 32 25 69 21 29 -3 53 -14 72 -32z"/>
<path d="M6380 8755 c-235 -47 -468 -170 -651 -343 -205 -195 -327 -425 -396 -751 -25 -116 -27 -144 -27 -356 0 -210 2 -241 27 -355 109 -518 360 -861 767 -1054 52 -25 129 -54 170 -66 74 -20 261 -53 267 -46 2 2 -31 20 -74 40 -295 141 -537 407 -662 731 -46 119 -94 304 -112 435 -22 155 -17 470 9 617 65 362 221 693 429 914 76 80 142 132 253 199 46 28 79 50 74 49 -5 0 -38 -7 -74 -14z m-750 -863 l-32 -103 -27 43 -28 43 18 50 c9 28 27 73 39 100 l22 50 20 -40 20 -41 -32 -102z m-92 -182 l31 -50 -14 -97 c-8 -52 -16 -98 -19 -100 -2 -2 -20 19 -41 47 -32 44 -36 55 -31 88 7 40 38 162 41 162 1 0 16 -23 33 -50z m-48 -336 c42 -56 42 -57 47 -155 3 -54 1 -99 -3 -99 -5 0 -28 19 -51 42 l-43 42 0 113 c0 62 2 113 4 113 2 0 23 -25 46 -56z m23 -350 c32 -29 37 -41 52 -120 9 -49 18 -98 21 -109 4 -13 -12 -2 -46 32 -49 48 -54 57 -71 135 -28 125 -28 125 44 62z"/>
<path d="M2946 8457 c-11 -8 -25 -45 -37 -97 -40 -172 -26 -153 -140 -194 l-101 -36 -31 22 c-18 12 -60 44 -94 70 -37 29 -73 48 -88 48 -37 0 -295 -237 -295 -271 0 -7 29 -60 65 -119 l65 -107 -45 -95 c-25 -52 -45 -100 -45 -105 0 -5 -54 -18 -120 -28 -65 -9 -127 -23 -137 -30 -16 -12 -18 -33 -19 -202 -2 -143 1 -193 12 -210 10 -16 30 -24 86 -33 139 -22 146 -25 158 -73 6 -23 22 -75 36 -115 13 -40 24 -77 24 -83 0 -6 -27 -50 -60 -98 -35 -51 -60 -99 -60 -113 0 -20 32 -56 142 -162 90 -87 149 -136 162 -136 12 0 61 27 110 60 50 33 94 60 99 60 20 0 237 -110 241 -122 2 -7 14 -65 28 -128 l24 -115 212 -3 c193 -2 212 -1 220 15 5 10 19 68 32 130 l23 112 41 19 c23 11 70 32 106 47 36 15 69 31 75 36 14 14 17 13 105 -51 54 -39 93 -60 111 -60 22 0 52 26 158 137 86 90 131 145 131 159 0 12 -25 63 -56 113 l-57 92 21 72 c11 40 26 97 32 128 l11 57 92 17 c147 28 137 10 137 244 0 147 -3 201 -12 208 -14 10 -187 43 -229 43 -21 0 -28 11 -64 107 -22 59 -41 110 -43 113 -1 3 27 50 63 105 36 55 65 109 65 120 0 22 -185 208 -249 250 -47 32 -55 29 -170 -58 l-85 -63 -101 35 -101 35 -23 105 c-12 59 -28 117 -34 131 l-12 25 -180 3 c-137 2 -185 -1 -199 -11z m396 -682 c148 -60 280 -206 322 -355 8 -30 18 -86 22 -125 22 -245 -156 -496 -405 -569 -64 -19 -187 -21 -263 -5 -167 36 -313 156 -387 320 -52 116 -62 209 -36 334 49 233 251 414 485 434 96 8 188 -4 262 -34z"/>
<path d="M2436 5687 c-19 -14 -20 -39 -32 -443 -16 -523 -42 -1241 -50 -1345 -8 -113 -18 -109 244 -109 119 0 224 5 232 10 15 9 22 251 30 975 1 110 4 193 7 185 3 -8 47 -109 98 -225 148 -334 262 -598 269 -623 14 -44 43 -53 187 -54 74 -1 144 2 155 6 14 4 31 28 47 64 14 31 101 230 193 442 l169 384 6 -169 c4 -94 9 -273 13 -400 12 -428 19 -570 29 -582 7 -10 65 -13 228 -13 216 0 219 0 233 23 15 23 14 46 -8 587 -4 74 -13 347 -21 605 -17 555 -23 667 -36 680 -14 14 -517 19 -552 6 -31 -12 -48 -44 -170 -316 -85 -191 -260 -598 -269 -624 -2 -8 -54 102 -115 245 -234 546 -285 660 -304 679 -18 19 -35 20 -292 23 -222 2 -276 0 -291 -11z"/>
<path d="M4822 5678 c-9 -9 -12 -230 -12 -934 0 -825 2 -924 16 -938 13 -14 47 -16 213 -16 192 0 198 1 218 23 63 69 469 792 565 1007 l38 85 0 -546 c0 -410 3 -548 12 -557 9 -9 73 -12 228 -12 155 0 219 3 228 12 16 16 18 1839 2 1869 -10 18 -23 19 -215 19 l-204 0 -28 -35 c-15 -19 -80 -123 -144 -232 -64 -109 -153 -261 -198 -337 -46 -77 -121 -212 -167 -300 l-84 -161 0 513 c0 334 -4 520 -10 533 -10 18 -23 19 -228 19 -156 0 -221 -3 -230 -12z"/>
<path d="M6645 5680 c-12 -19 -15 -172 -19 -1041 -2 -498 0 -822 6 -832 8 -15 34 -17 233 -17 203 0 225 2 234 17 6 11 7 120 4 289 l-6 271 204 6 c232 6 315 20 428 74 92 44 202 149 255 244 59 107 79 208 74 364 -5 114 -9 140 -36 214 -18 46 -45 105 -62 132 -49 75 -159 172 -242 213 -140 69 -145 69 -629 74 -329 2 -439 1 -444 -8z m736 -416 c69 -8 144 -56 170 -106 50 -99 31 -247 -40 -311 -55 -49 -94 -59 -263 -64 l-148 -5 0 245 0 246 43 3 c50 5 174 0 238 -8z"/>
<path d="M8122 3768 c-14 -14 -16 -155 -3 -176 5 -9 33 -13 87 -13 181 -1 174 -3 214 40 21 22 46 60 55 85 28 74 23 76 -174 76 -117 0 -171 -4 -179 -12z"/>
<path d="M710 3496 c-153 -44 -249 -160 -273 -333 -9 -62 -9 -76 3 -83 17 -11 239 -14 264 -4 10 4 16 18 16 35 0 39 22 89 50 114 16 15 36 20 77 20 47 0 58 -4 79 -28 33 -39 47 -100 41 -180 -7 -78 -31 -128 -67 -138 -14 -4 -55 -7 -92 -8 -56 -1 -69 -4 -78 -20 -15 -29 -13 -196 3 -209 7 -6 52 -15 100 -20 94 -10 113 -20 134 -69 16 -40 16 -185 0 -233 -17 -49 -67 -80 -129 -80 -43 0 -54 4 -84 34 -28 28 -34 41 -34 78 0 24 -5 49 -12 56 -8 8 -52 12 -134 12 -147 0 -150 -1 -140 -96 15 -144 86 -248 211 -310 58 -28 66 -29 195 -29 163 1 219 18 303 95 94 86 135 216 124 396 -8 138 -52 221 -141 267 l-30 15 30 15 c43 22 80 66 105 122 31 70 31 240 0 335 -53 166 -177 250 -376 256 -62 2 -117 -2 -145 -10z"/>
<path d="M5520 3494 c-109 -29 -203 -112 -240 -211 -34 -92 -42 -216 -37 -589 5 -379 9 -415 62 -512 36 -66 91 -116 164 -151 51 -24 67 -26 176 -26 101 0 129 4 176 23 82 33 142 90 184 175 52 107 67 273 27 305 -20 15 -215 17 -243 2 -15 -9 -19 -22 -19 -68 0 -31 -5 -74 -10 -94 -32 -113 -189 -120 -220 -10 -6 22 -10 190 -10 425 0 339 2 393 16 423 30 63 116 84 169 42 37 -29 55 -76 55 -147 0 -86 8 -91 140 -91 60 0 115 3 124 6 21 8 22 170 1 240 -37 124 -126 218 -244 254 -75 24 -191 25 -271 4z"/>
<path d="M9397 3500 c-107 -27 -200 -108 -237 -206 -37 -100 -42 -177 -38 -588 4 -376 5 -394 27 -455 58 -167 183 -251 371 -251 104 0 169 18 235 64 107 76 154 173 163 328 3 70 1 102 -8 113 -16 20 -227 22 -252 3 -11 -9 -18 -37 -22 -91 -6 -86 -14 -106 -52 -136 -32 -25 -100 -28 -132 -6 -48 34 -53 91 -50 502 3 360 4 380 24 413 57 98 179 73 203 -41 6 -27 11 -66 11 -85 0 -70 7 -74 138 -74 79 0 122 4 130 12 17 17 15 142 -3 213 -33 123 -105 213 -213 263 -48 22 -73 27 -157 29 -55 1 -117 -2 -138 -7z"/>
<path d="M1612 3463 c-10 -19 -17 -54 -82 -408 -22 -121 -75 -394 -118 -608 -59 -299 -74 -391 -66 -405 9 -14 30 -17 135 -20 93 -2 129 1 143 11 14 10 23 43 37 133 10 65 19 122 19 127 0 4 60 7 134 7 l133 0 21 -131 c12 -78 26 -135 34 -140 7 -5 71 -9 141 -9 108 0 129 3 134 16 3 9 -20 147 -51 307 -31 161 -67 355 -81 432 -78 442 -124 676 -135 690 -10 12 -45 15 -201 15 -169 0 -189 -2 -197 -17z m253 -641 c25 -139 43 -256 41 -261 -5 -8 -176 -3 -185 5 -4 4 75 471 86 509 8 26 5 37 58 -253z"/>
<path d="M2397 3473 c-4 -3 -7 -327 -7 -718 0 -596 2 -714 14 -724 9 -8 55 -11 137 -9 l124 3 3 593 2 592 125 0 125 0 0 -576 c0 -377 4 -582 10 -595 10 -17 22 -19 133 -19 82 0 127 4 135 12 17 17 17 1419 0 1436 -9 9 -112 12 -403 12 -216 0 -395 -3 -398 -7z"/>
<path d="M3366 3464 c-3 -9 -6 -154 -6 -324 0 -280 2 -314 20 -371 54 -172 205 -269 416 -269 l94 0 0 -228 c0 -164 3 -231 12 -240 8 -8 53 -12 135 -12 111 0 123 2 133 19 6 13 10 255 10 715 0 618 -2 696 -16 710 -12 13 -40 16 -134 16 -108 0 -120 -2 -130 -19 -6 -13 -10 -144 -10 -357 l0 -337 -66 7 c-75 8 -119 26 -151 65 -22 26 -22 31 -23 322 0 216 -3 298 -12 307 -8 8 -54 12 -139 12 -106 0 -128 -3 -133 -16z"/>
<path d="M4533 3468 c-10 -13 -52 -227 -132 -678 -21 -118 -62 -333 -91 -477 -45 -219 -52 -264 -41 -277 18 -22 252 -23 273 -2 8 8 22 68 33 140 l18 126 132 0 132 0 21 -131 c12 -79 26 -135 34 -140 7 -5 71 -9 141 -9 107 0 129 3 134 16 3 8 -18 138 -47 287 -64 331 -84 438 -150 816 -29 162 -56 305 -61 318 -8 23 -9 23 -198 23 -139 0 -191 -3 -198 -12z m256 -719 c17 -97 31 -180 31 -185 0 -5 -43 -10 -94 -10 l-95 -1 5 26 c5 29 83 505 85 518 2 13 35 -155 68 -348z"/>
<path d="M6142 3468 c-16 -16 -17 -229 0 -246 8 -8 52 -12 130 -12 l118 0 0 -583 c0 -440 3 -586 12 -595 13 -13 222 -18 252 -6 14 6 16 67 16 595 l0 589 113 0 c75 0 119 4 130 13 15 11 17 28 15 132 l-3 120 -385 3 c-292 2 -389 -1 -398 -10z"/>
<path d="M7036 3471 c-8 -12 -8 -1430 -1 -1442 4 -5 137 -9 330 -9 281 0 326 2 339 16 13 12 16 39 16 123 0 148 12 141 -223 141 l-187 0 0 165 0 165 139 0 c77 0 151 4 165 10 26 9 26 11 26 118 0 71 -4 112 -12 120 -8 8 -59 12 -165 12 l-153 0 0 160 0 160 193 0 c137 0 196 3 205 12 17 17 17 229 0 246 -14 14 -663 17 -672 3z"/>
<path d="M7857 3474 c-4 -4 -7 -327 -7 -719 0 -540 3 -714 12 -723 8 -8 48 -12 114 -12 121 0 136 8 157 90 20 73 206 680 217 705 5 12 9 -141 9 -375 1 -294 4 -399 13 -408 16 -16 220 -16 236 0 17 17 17 1419 0 1436 -14 14 -205 17 -225 4 -13 -8 -87 -228 -198 -591 -38 -122 -71 -221 -74 -221 -3 0 -6 183 -6 407 l0 408 -121 3 c-66 1 -123 -1 -127 -4z"/>
<path d="M8732 2863 c-8 -20 -6 -188 2 -210 4 -10 35 -13 131 -13 l125 0 11 28 c14 35 6 176 -11 196 -10 13 -36 16 -132 16 -104 0 -120 -2 -126 -17z"/>
<path d="M1955 1616 c-13 -22 -195 -459 -195 -471 0 -3 26 -5 58 -3 l57 3 15 43 14 42 102 0 101 0 17 -45 18 -45 54 0 c32 0 54 4 54 11 0 13 -179 461 -188 471 -4 4 -26 9 -50 11 -36 3 -46 1 -57 -17z"/>
<path d="M3600 1631 c-175 -54 -237 -271 -119 -414 45 -55 100 -80 189 -84 67 -4 81 -2 130 24 69 36 115 94 130 168 28 136 -36 258 -158 299 -48 17 -129 20 -172 7z m157 -111 c81 -49 91 -185 17 -249 -46 -41 -94 -49 -153 -25 -109 45 -122 205 -22 271 43 29 113 31 158 3z"/>
<path d="M4145 1616 c-73 -34 -79 -44 -46 -85 l28 -34 34 24 c25 18 47 24 85 24 60 0 84 -16 84 -56 0 -36 -24 -49 -89 -49 l-51 0 0 -45 c0 -29 4 -45 13 -46 107 -6 145 -27 133 -73 -8 -34 -38 -48 -99 -48 -40 1 -60 7 -93 30 l-42 30 -31 -32 -31 -32 27 -26 c59 -54 81 -63 172 -63 102 0 149 19 182 72 35 57 20 155 -28 181 -15 9 -13 13 13 35 25 22 29 32 29 80 0 41 -5 61 -20 77 -55 62 -180 79 -270 36z"/>
<path d="M6531 1631 c-5 -4 -19 -29 -31 -56 -49 -114 -170 -417 -170 -426 0 -5 24 -9 54 -9 l53 0 17 45 18 45 98 0 98 0 18 -45 17 -45 53 0 c31 0 54 4 54 10 0 15 -180 463 -190 474 -10 10 -75 15 -89 7z"/>
<path d="M7060 1620 c-56 -26 -95 -63 -123 -115 -31 -56 -30 -182 0 -241 28 -53 79 -97 137 -119 66 -25 169 -17 230 19 37 22 86 72 86 89 0 2 -19 17 -41 33 l-41 28 -22 -26 c-26 -32 -77 -58 -113 -58 -36 0 -100 37 -127 73 -26 35 -27 118 -2 165 22 42 71 72 118 72 50 0 81 -13 115 -50 l30 -32 42 27 c22 15 41 30 41 32 0 17 -49 67 -87 90 -64 37 -178 43 -243 13z"/>
<path d="M8051 1632 c-7 -2 -11 -84 -11 -248 l0 -244 50 0 c50 0 50 1 94 60 24 32 75 105 112 161 l69 101 3 -161 2 -161 50 0 50 0 0 244 0 243 -41 6 c-23 3 -47 3 -53 1 -6 -3 -60 -74 -120 -159 -60 -85 -111 -155 -113 -155 -2 0 -4 48 -3 108 1 59 1 128 1 153 l-1 47 -39 4 c-22 2 -45 2 -50 0z"/>
<path d="M2405 1618 c-3 -7 -4 -117 -3 -243 l3 -230 151 -3 c143 -2 152 -1 185 21 48 32 60 62 56 131 -3 50 -8 63 -32 83 l-28 24 22 15 c48 34 43 126 -8 178 l-31 31 -155 3 c-123 3 -156 1 -160 -10z m263 -94 c28 -19 28 -48 2 -74 -18 -18 -31 -20 -93 -18 l-72 3 -3 53 -3 52 73 0 c50 0 81 -5 96 -16z m12 -194 c22 -22 25 -42 10 -71 -9 -17 -22 -19 -100 -19 l-90 0 0 55 0 55 80 0 c67 0 83 -3 100 -20z"/>
<path d="M2920 1585 c0 -29 4 -45 13 -46 6 0 40 0 74 1 l63 1 2 -198 3 -198 53 -3 52 -3 0 200 0 201 80 0 80 0 0 45 0 45 -210 0 -210 0 0 -45z"/>
<path d="M4747 1618 c-34 -83 -161 -391 -172 -416 -25 -56 -21 -62 39 -62 l54 0 14 43 15 42 102 3 101 3 20 -46 19 -45 56 0 55 0 -20 53 c-11 28 -55 138 -98 242 l-77 190 -51 3 c-35 2 -53 -1 -57 -10z"/>
<path d="M5190 1385 l0 -245 49 0 c39 0 51 4 54 18 3 9 4 91 3 182 -1 91 0 173 2 183 4 15 17 17 103 17 l99 0 0 -201 0 -200 53 3 52 3 3 243 2 242 -210 0 -210 0 0 -245z"/>
<path d="M5772 1506 c3 -108 6 -128 24 -153 54 -73 161 -94 242 -48 l42 24 0 -95 0 -94 50 0 50 0 0 245 0 245 -50 0 -50 0 0 -80 c0 -93 -15 -132 -60 -155 -44 -22 -87 -19 -115 10 -23 22 -25 31 -25 125 l0 100 -56 0 -56 0 4 -124z"/>
<path d="M7490 1591 c0 -22 5 -43 12 -47 6 -4 42 -6 79 -5 l69 2 2 -198 3 -198 53 -3 52 -3 0 200 0 200 78 3 77 3 0 40 0 40 -212 3 -213 2 0 -39z"/>
</g>
</svg>
